<svg id="svg-icon" xmlns="http://www.w3.org/2000/svg" viewBox="0 0 1000 1000" style="position: absolute; top: 16px; left: 24px; fill:#ffffff; width: 40px;height: 40px;"> <path class="fil0" d="M381 495l126 0 254 -126 -380 0 0 126zm0 252l254 -126 -254 0 0 126zm380 126l-508 0 0 -631 -254 126 0 631 508 0 254 -126z"></path> <path class="fil0" d="M628 228c20,1 40,6 58,14l45 0 30 0 0 28 0 40c5,9 9,19 12,29 4,13 6,27 7,41 22,0 44,0 66,0 1,-46 -11,-93 -38,-130 -40,-58 -109,-93 -180,-92 0,23 0,47 0,70z"></path> <path class="fil0" d="M618 77c97,0 193,50 249,130 37,53 57,118 56,183 25,0 51,0 76,0 1,-61 -12,-123 -40,-177 -36,-70 -92,-130 -162,-167 -55,-29 -117,-44 -179,-45 0,25 0,51 0,76z"></path> </svg>