<?xml version="1.0"?><svg width="640" height="480" viewBox="0 0 640 480" xmlns="http://www.w3.org/2000/svg">
 <title>quote</title>
 <metadata id="metadata6">image/svg+xmlCzech right quotation mark2007-08-27Petr Kadlec &lt;http://cs.wikipedia.org/wiki/User:Mormegil&gt;</metadata>
 <g>
  <title>Layer 1</title>
  <g id="layer1">
   <path d="m176.747437,-0.56268l0,32.884198c-40.035645,24.597416 -68.697334,50.263168 -85.985237,76.997215c-17.288132,26.736229 -25.932144,55.87751 -25.932053,87.423958c-0.000092,18.715256 2.274651,31.548157 6.824226,38.498611c4.094444,7.486526 9.098869,11.229416 15.01329,11.22876c5.914185,0.000656 13.875801,-2.004089 23.884819,-6.015411c10.008659,-4.009247 19.107643,-6.014374 27.296898,-6.015442c18.652695,0.001038 34.917023,8.154938 48.793228,24.462616c13.875641,16.309204 20.813553,36.226868 20.813858,59.753113c-0.000305,25.666412 -8.416794,47.722931 -25.249634,66.169464c-16.833298,18.447968 -37.760925,27.671631 -62.78289,27.670868c-30.481628,0.000763 -58.006023,-15.505646 -82.57309,-46.519135c-24.567259,-31.012054 -36.850863,-69.243347 -36.850815,-114.693741c-0.000048,-53.469284 15.126946,-103.330338 45.381081,-149.583138c30.253952,-46.250801 74.042694,-80.338093 131.366318,-102.261937l0,0zm325.515564,2.406134l0,30.478063c-45.950348,31.013851 -76.204285,58.818398 -90.762177,83.413643c-14.558838,24.597435 -21.838013,53.471382 -21.837524,86.62188c-0.000488,14.972763 2.501801,26.201508 7.506592,33.686279c5.004089,7.486526 10.235931,11.229431 15.695801,11.22876c5.003937,0.000671 12.510529,-2.138123 22.519897,-6.416443c10.008362,-4.27655 20.017181,-6.415359 30.026581,-6.416428c18.652313,0.001068 34.916809,7.887939 48.793274,23.660614c13.875244,15.774445 20.813293,35.157471 20.813782,58.148926c-0.000488,26.201172 -8.758301,48.926056 -26.273163,68.174622c-17.516022,19.25 -39.012329,28.874664 -64.488983,28.873962c-30.027039,0.000702 -57.096375,-15.238281 -81.208282,-45.717072c-24.11261,-30.477325 -36.168762,-68.441254 -36.168365,-113.891739c-0.000397,-56.142731 15.240356,-107.340561 45.72229,-153.593376c30.48114,-46.250801 73.701172,-79.001307 129.660278,-98.251691l0,0z" id="text2159" stroke-width="1px" fill="#bfbf00"/>
  </g>
 </g>
</svg>